<svg xmlns="http://www.w3.org/2000/svg" xmlns:xlink="http://www.w3.org/1999/xlink" version="1.1" id="Calque_1" x="0px" y="0px" width="100px" height="100px" viewBox="0 0 100 100" enable-background="new 0 0 100 100" xml:space="preserve">
<path d="M95.804,84.361c0,4.219-3.222,7.639-7.196,7.639h-74.05c-3.974,0-7.196-3.42-7.196-7.639v-0.898  c0-4.218-0.465-7.636,2.888-7.636h82.666c3.584,0,2.889,3.418,2.889,7.636V84.361z"/>
<path d="M92.097,53.729c-3.844,3.318-13.586,11.239-15.686,8.228c-2.01-2.888-16.594-6.978-23.349-8.745H11.59  c-3.065,0-5.551,2.12-5.551,4.735v7.094c0,2.616,2.486,4.736,5.551,4.736h77.992c3.067,0,5.552-2.12,5.552-4.733v-7.097  C95.134,56.104,93.898,54.512,92.097,53.729z"/>
<g>
	<path d="M88.357,21.989C80.84,13.233,68.133,8.794,50.589,8.794c-17.57,0-30.277,4.428-37.771,13.164   c-8.581,9.985-6.893,21.853-6.816,22.357c0.281,1.826,1.84,3.202,3.627,3.202H91.54c1.784,0,3.346-1.376,3.633-3.211   C95.248,43.806,96.923,31.961,88.357,21.989z M27.909,27.765c-1.155,2.537-3.065,4.149-4.266,3.603   c-1.2-0.545-1.237-3.047-0.082-5.584s3.063-4.15,4.265-3.604C29.027,22.728,29.064,25.227,27.909,27.765z M40.149,34.696   c-0.968,2.923-2.89,4.919-4.291,4.454c-1.401-0.464-1.751-3.211-0.784-6.136c0.97-2.923,2.89-4.92,4.29-4.455   C40.766,29.025,41.117,31.771,40.149,34.696z M51.184,29.356c-1.465,0-2.654-2.168-2.654-4.844c0-2.676,1.188-4.845,2.654-4.845   c1.47,0,2.659,2.168,2.659,4.845C53.843,27.188,52.653,29.356,51.184,29.356z M64.264,39.151c-1.442,0.227-2.986-1.957-3.448-4.882   c-0.463-2.927,0.332-5.482,1.774-5.709c1.44-0.229,2.983,1.957,3.447,4.882C66.499,36.368,65.706,38.923,64.264,39.151z    M79.525,32.225c-1.178,0.586-3.202-1.088-4.519-3.739c-1.318-2.654-1.428-5.278-0.247-5.865c1.18-0.586,3.202,1.088,4.52,3.742   C80.596,29.016,80.707,31.639,79.525,32.225z"/>
</g>
</svg>